<svg width="149" height="52" viewBox="0 0 149 52" fill="none" xmlns="http://www.w3.org/2000/svg">
<path fill-rule="evenodd" clip-rule="evenodd" d="M132.324 24.2113C131.098 23.0403 129.52 22.5307 127.717 22.5307C125.213 22.5036 122.785 23.5707 122.812 26.0459C122.836 28.5689 125.213 29.0265 127.617 29.4342C129.644 29.7649 131.705 30.1227 131.647 31.9302C131.574 33.9187 129.295 34.3263 127.793 34.3263C126.141 34.3263 124.287 33.6878 123.261 32.186L122.36 33.0014C123.437 34.682 125.589 35.5223 127.768 35.5223C129.947 35.5223 132.774 34.7839 132.849 32.0071C132.976 29.0785 129.945 28.6958 127.74 28.3131C126.186 28.0323 124.034 27.7015 123.983 26.0251C123.934 24.4193 125.786 23.6809 127.713 23.7059C129.091 23.7059 130.317 23.9139 131.57 25.0308L132.324 24.2113ZM119.856 35.3185V22.7116H118.63V29.7171C118.63 32.315 116.854 34.2764 114.299 34.3035C111.621 34.3284 109.894 32.7996 109.894 29.9355V22.7116H108.668V29.9708C108.668 33.4611 110.947 35.5244 114.252 35.5244C115.979 35.4995 117.706 34.786 118.656 33.0534V35.3206H119.856V35.3185Z" fill="#F46A3D"/>
</svg>
