<svg width="149" height="52" viewBox="0 0 149 52" fill="none" xmlns="http://www.w3.org/2000/svg">
<path fill-rule="evenodd" clip-rule="evenodd" d="M132.324 24.2113C131.098 23.0403 129.52 22.5307 127.717 22.5307C125.213 22.5036 122.785 23.5707 122.812 26.0459C122.836 28.5689 125.213 29.0265 127.617 29.4342C129.644 29.7649 131.705 30.1227 131.647 31.9302C131.574 33.9187 129.295 34.3263 127.793 34.3263C126.141 34.3263 124.287 33.6878 123.261 32.186L122.36 33.0014C123.437 34.682 125.589 35.5223 127.768 35.5223C129.947 35.5223 132.774 34.7839 132.849 32.0071C132.976 29.0785 129.945 28.6958 127.74 28.3131C126.186 28.0323 124.034 27.7015 123.983 26.0251C123.934 24.4193 125.786 23.6809 127.713 23.7059C129.091 23.7059 130.317 23.9139 131.57 25.0308L132.324 24.2113ZM119.856 35.3185V22.7116H118.63V29.7171C118.63 32.315 116.854 34.2764 114.299 34.3035C111.621 34.3284 109.894 32.7996 109.894 29.9355V22.7116H108.668V29.9708C108.668 33.4611 110.947 35.5244 114.252 35.5244C115.979 35.4995 117.706 34.786 118.656 33.0534V35.3206H119.856V35.3185Z" fill="#F46A3D"/>
<path fill-rule="evenodd" clip-rule="evenodd" d="M94.397 17.1394V34.9483H97.4506V29.2575L102.282 34.94H105.961V34.7091L100.228 28.2903L105.26 22.5578V22.3789H101.606L97.4506 27.425V17.1394H94.397ZM91.4068 34.9483V28.3402C91.4068 24.3882 89.0788 22.1751 86.1744 22.1751C84.6231 22.1751 83.3722 22.8115 82.1193 24.0616L81.9149 22.3539H79.2006V34.94H82.2297V28.5191C82.2297 26.6096 83.5071 25.0039 85.3855 25.0039C87.2638 25.0039 88.3634 26.4599 88.3634 28.3672V34.94L91.4068 34.9483ZM72.7481 18.8387C72.7481 21.2578 76.3514 21.2578 76.3514 18.8387C76.3514 16.4197 72.7481 16.4176 72.7481 18.8387ZM76.0776 22.3394V34.9504H73.0117V22.3394H76.0776ZM58.1689 17.0811V34.94H70.4855V31.82H61.4719V17.0811H58.1689Z" fill="#2B3642"/>
<path d="M47.0261 14.9096C48.8329 16.7213 48.931 19.3109 45.2417 23.1214L37.2869 31.3395L33.8838 31.3666L43.533 21.3971C45.9489 18.9011 46.1513 17.4701 45.3317 16.6485C44.232 15.5461 41.7058 14.9845 39.4228 14.635V13.2685C39.4105 12.8837 39.3962 12.5114 39.3758 12.1474C42.0941 12.5634 45.3501 13.231 47.0261 14.9096ZM34.3171 6.03216C36.8536 6.01136 38.7319 7.77936 38.7605 13.1208L38.8464 24.6586L36.4591 27.1234L36.3549 13.1291C36.3283 9.6264 35.478 8.46992 34.3273 8.47824C32.7842 8.49072 30.6115 9.91552 28.7516 11.305L27.793 10.3461C27.5191 10.0674 27.2514 9.81776 26.9877 9.58272C29.1931 7.91872 31.9646 6.04672 34.3171 6.03216ZM19.1555 8.89216C20.9357 7.05344 23.4804 6.94736 27.2248 10.708L35.3023 18.8034L35.3268 22.2645L25.5304 12.4469C23.0777 9.98832 21.6736 9.7824 20.8642 10.6165C19.7809 11.7355 19.2291 14.3064 18.8857 16.6298L17.5429 16.6402C17.1566 16.6422 16.7907 16.6568 16.4412 16.6776C16.8398 13.9112 17.5061 10.5978 19.1555 8.89216ZM17.3896 17.3037L28.7271 17.2163L31.1511 19.6458L17.3998 19.7518C13.9579 19.7789 12.8215 20.6442 12.8296 21.8152C12.8419 23.3856 14.242 25.5966 15.6073 27.4915L14.6651 28.465C14.3953 28.7437 14.1459 29.0162 13.9149 29.2845C12.2737 27.0402 10.4424 24.2114 10.424 21.8256C10.4056 19.2443 12.1347 17.3474 17.3896 17.3037ZM13.2343 37.2571C11.4275 35.4434 11.3315 32.8538 15.0227 29.0432L22.9755 20.823L26.3766 20.7981L16.7273 30.7675C14.3115 33.2635 14.1091 34.6946 14.9308 35.5162C16.0283 36.6186 18.5546 37.1802 20.8376 37.5296V38.8962C20.8499 39.2893 20.8642 39.6616 20.8846 40.0194C18.1663 39.6034 14.9103 38.9357 13.2343 37.2571ZM33.2727 42.5902C31.0694 44.2542 28.2958 46.1262 25.9433 46.1429C23.4068 46.1637 21.5387 44.4019 21.4998 39.0542L21.414 27.5165L23.8115 25.0434L23.9157 39.0376C23.9423 42.5403 24.7926 43.6968 25.9453 43.6885C27.4885 43.676 29.6591 42.2512 31.5211 40.8618L32.4776 41.8206C32.7433 42.0994 33.009 42.3552 33.2727 42.5882V42.5902ZM43.8192 35.5037C43.4206 38.268 42.7543 41.5794 41.1049 43.2829C39.3247 45.1216 36.78 45.2214 33.0356 41.467L24.9602 33.3654L24.9336 29.9043L34.73 39.724C37.1827 42.1826 38.5889 42.3885 39.3962 41.5523C40.4795 40.4354 41.0313 37.8645 41.3747 35.5411H42.7175C43.1038 35.5411 43.4697 35.5245 43.8192 35.5037C43.8192 35.5037 43.8192 35.4995 43.8192 35.4974V35.5037ZM42.8708 34.8776L31.5333 34.965L29.1093 32.5334L42.8606 32.4274C46.3025 32.4003 47.4389 31.535 47.4307 30.3619C47.4205 28.7915 46.0205 26.5826 44.6531 24.6877L45.5953 23.7142C45.8651 23.4334 46.1165 23.1589 46.3475 22.8906V22.8968C47.9826 25.139 49.8221 27.9616 49.8364 30.3557C49.8569 32.937 48.1257 34.8381 42.8708 34.8776Z" fill="url(#paint0_linear_472_20999)"/>
<defs>
<linearGradient id="paint0_linear_472_20999" x1="20.8499" y1="36.4834" x2="48.7477" y2="6.30628" gradientUnits="userSpaceOnUse">
<stop stop-color="#F3643C"/>
<stop offset="1" stop-color="#FFBD4F"/>
</linearGradient>
</defs>
</svg>
