<svg width="193" height="194" viewBox="0 0 193 194" fill="none" xmlns="http://www.w3.org/2000/svg">
<path d="M179.081 42.9676C187.921 51.7124 188.401 64.2122 170.351 82.6055L131.431 122.274L114.781 122.404L161.991 74.2823C173.811 62.2344 174.801 55.3268 170.791 51.361C165.411 46.0398 153.051 43.329 141.881 41.6423V35.046C141.821 33.1886 141.751 31.3915 141.651 29.6345C154.951 31.6425 170.881 34.8653 179.081 42.9676V42.9676ZM116.901 0.116871C129.311 0.0164712 138.501 8.55047 138.641 34.3332L139.061 90.0251L127.381 101.922L126.871 34.3733C126.741 17.466 122.581 11.8838 116.951 11.9239C109.401 11.9842 98.7707 18.8616 89.6707 25.5683L84.9807 20.9398C83.6407 19.5945 82.3307 18.3897 81.0407 17.2551C91.8307 9.22315 105.391 0.187151 116.901 0.116871ZM42.7207 13.9219C51.4307 5.04651 63.8807 4.53447 82.2007 22.6868L121.721 61.7625L121.841 78.469L73.9107 31.0802C61.9107 19.213 55.0407 18.219 51.0807 22.245C45.7807 27.6466 43.0807 40.056 41.4007 51.2707L34.8307 51.3209C32.9407 51.3309 31.1507 51.4012 29.4407 51.5016C31.3907 38.1484 34.6507 22.1547 42.7207 13.9219ZM34.0807 54.5236L89.5507 54.1019L101.411 65.8287L34.1307 66.3407C17.2907 66.4712 11.7307 70.6479 11.7707 76.3004C11.8307 83.8806 18.6807 94.5531 25.3607 103.7L20.7507 108.398C19.4307 109.744 18.2107 111.059 17.0807 112.354C9.05071 101.521 0.0907093 87.8665 0.000709263 76.3506C-0.0892907 63.8909 8.37071 54.7345 34.0807 54.5236V54.5236ZM13.7507 150.837C4.91071 142.082 4.44071 129.583 22.5007 111.189L61.4107 71.5113L78.0507 71.3908L30.8407 119.513C19.0207 131.561 18.0307 138.468 22.0507 142.434C27.4207 147.755 39.7807 150.466 50.9507 152.153V158.749C51.0107 160.646 51.0807 162.444 51.1807 164.17C37.8807 162.162 21.9507 158.94 13.7507 150.837ZM111.791 176.58C101.011 184.612 87.4407 193.648 75.9307 193.728C63.5207 193.829 54.3807 185.325 54.1907 159.512L53.7707 103.82L65.5007 91.8825L66.0107 159.432C66.1407 176.339 70.3007 181.921 75.9407 181.881C83.4907 181.821 94.1107 174.943 103.221 168.237L107.901 172.865C109.201 174.21 110.501 175.445 111.791 176.57V176.58ZM163.391 142.374C161.441 155.717 158.181 171.7 150.111 179.923C141.401 188.799 128.951 189.281 110.631 171.158L71.1207 132.053L70.9907 115.346L118.921 162.745C130.921 174.612 137.801 175.606 141.751 171.57C147.051 166.178 149.751 153.769 151.431 142.554H158.001C159.891 142.554 161.681 142.474 163.391 142.374C163.391 142.374 163.391 142.354 163.391 142.344V142.374V142.374ZM158.751 139.352L103.281 139.773L91.4207 128.037L158.701 127.524C175.541 127.394 181.101 123.217 181.061 117.555C181.011 109.975 174.161 99.3121 167.471 90.1656L172.081 85.4669C173.401 84.1115 174.631 82.7862 175.761 81.4911V81.5212C183.761 92.3443 192.761 105.969 192.831 117.525C192.931 129.984 184.461 139.161 158.751 139.352V139.352Z" fill="url(#paint0_linear_2200_4979)"/>
<defs>
<linearGradient id="paint0_linear_2200_4979" x1="51.0107" y1="147.102" x2="185.517" y2="-0.372733" gradientUnits="userSpaceOnUse">
<stop stop-color="#F3643C"/>
<stop offset="1" stop-color="#FFBD4F"/>
</linearGradient>
</defs>
</svg>
