<svg width="264" height="322" viewBox="0 0 264 322" fill="none" xmlns="http://www.w3.org/2000/svg">
<path d="M216.081 71.9676C224.921 80.7124 225.401 93.2122 207.351 111.606L168.431 151.274L151.781 151.404L198.991 103.282C210.811 91.2344 211.801 84.3268 207.791 80.361C202.411 75.0398 190.051 72.329 178.881 70.6423V64.046C178.821 62.1886 178.751 60.3915 178.651 58.6345C191.951 60.6425 207.881 63.8653 216.081 71.9676V71.9676ZM153.901 29.1169C166.311 29.0165 175.501 37.5505 175.641 63.3332L176.061 119.025L164.381 130.922L163.871 63.3733C163.741 46.466 159.581 40.8838 153.951 40.9239C146.401 40.9842 135.771 47.8616 126.671 54.5683L121.981 49.9398C120.641 48.5945 119.331 47.3897 118.041 46.2551C128.831 38.2231 142.391 29.1872 153.901 29.1169ZM79.7207 42.9219C88.4307 34.0465 100.881 33.5345 119.201 51.6868L158.721 90.7625L158.841 107.469L110.911 60.0802C98.9107 48.213 92.0407 47.219 88.0807 51.245C82.7807 56.6466 80.0807 69.056 78.4007 80.2707L71.8307 80.3209C69.9407 80.3309 68.1507 80.4012 66.4407 80.5016C68.3907 67.1484 71.6507 51.1547 79.7207 42.9219ZM71.0807 83.5236L126.551 83.1019L138.411 94.8287L71.1307 95.3407C54.2907 95.4712 48.7307 99.6479 48.7707 105.3C48.8307 112.881 55.6807 123.553 62.3607 132.7L57.7507 137.398C56.4307 138.744 55.2107 140.059 54.0807 141.354C46.0507 130.521 37.0907 116.866 37.0007 105.351C36.9107 92.8909 45.3707 83.7345 71.0807 83.5236V83.5236ZM50.7507 179.837C41.9107 171.082 41.4407 158.583 59.5007 140.189L98.4107 100.511L115.051 100.391L67.8407 148.513C56.0207 160.561 55.0307 167.468 59.0507 171.434C64.4207 176.755 76.7807 179.466 87.9507 181.153V187.749C88.0107 189.646 88.0807 191.444 88.1807 193.17C74.8807 191.162 58.9507 187.94 50.7507 179.837ZM148.791 205.58C138.011 213.612 124.441 222.648 112.931 222.728C100.521 222.829 91.3807 214.325 91.1907 188.512L90.7707 132.82L102.501 120.882L103.011 188.432C103.141 205.339 107.301 210.921 112.941 210.881C120.491 210.821 131.111 203.943 140.221 197.237L144.901 201.865C146.201 203.21 147.501 204.445 148.791 205.57V205.58ZM200.391 171.374C198.441 184.717 195.181 200.7 187.111 208.923C178.401 217.799 165.951 218.281 147.631 200.158L108.121 161.053L107.991 144.346L155.921 191.745C167.921 203.612 174.801 204.606 178.751 200.57C184.051 195.178 186.751 182.769 188.431 171.554H195.001C196.891 171.554 198.681 171.474 200.391 171.374C200.391 171.374 200.391 171.354 200.391 171.344V171.374V171.374ZM195.751 168.352L140.281 168.773L128.421 157.037L195.701 156.524C212.541 156.394 218.101 152.217 218.061 146.555C218.011 138.975 211.161 128.312 204.471 119.166L209.081 114.467C210.401 113.112 211.631 111.786 212.761 110.491V110.521C220.761 121.344 229.761 134.969 229.831 146.525C229.931 158.984 221.461 168.161 195.751 168.352V168.352Z" fill="url(#paint0_linear_100_12371)"/>
<path fill-rule="evenodd" clip-rule="evenodd" d="M219.418 255.477C216.485 252.752 212.711 251.566 208.399 251.566C202.41 251.503 196.602 253.986 196.665 259.746C196.724 265.617 202.41 266.682 208.159 267.63C213.009 268.4 217.937 269.232 217.8 273.438C217.624 278.065 212.173 279.014 208.58 279.014C204.629 279.014 200.195 277.528 197.741 274.034L195.585 275.931C198.161 279.842 203.309 281.797 208.521 281.797C213.732 281.797 220.494 280.079 220.675 273.617C220.978 266.803 213.728 265.912 208.452 265.022C204.737 264.368 199.589 263.599 199.467 259.698C199.349 255.961 203.779 254.243 208.389 254.301C211.684 254.301 214.617 254.785 217.614 257.384L219.418 255.477ZM189.596 281.323V251.987H186.663V268.289C186.663 274.334 182.414 278.898 176.303 278.961C169.899 279.019 165.768 275.461 165.768 268.797V251.987H162.834V268.879C162.834 277.001 168.285 281.802 176.191 281.802C180.322 281.744 184.453 280.084 186.726 276.052V281.328H189.596V281.323Z" fill="#F46A3D"/>
<path fill-rule="evenodd" clip-rule="evenodd" d="M128.7 239.021V280.461H136.004V267.219L147.561 280.442H156.361V279.905L142.648 264.968L154.684 251.629V251.213H145.943L136.004 262.955V239.021H128.7ZM121.548 280.461V265.085C121.548 255.889 115.979 250.739 109.032 250.739C105.321 250.739 102.329 252.22 99.3324 255.129L98.8435 251.155H92.3511V280.442H99.5964V265.501C99.5964 261.058 102.652 257.321 107.145 257.321C111.638 257.321 114.268 260.709 114.268 265.148V280.442L121.548 280.461ZM76.9169 242.976C76.9169 248.604 85.536 248.604 85.536 242.976C85.536 237.347 76.9169 237.342 76.9169 242.976ZM84.8809 251.121V280.466H77.5475V251.121H84.8809ZM42.0444 238.886V280.442H71.5049V273.182H49.9449V238.886H42.0444Z" fill="#2B3642"/>
<defs>
<linearGradient id="paint0_linear_100_12371" x1="88.0107" y1="176.102" x2="222.517" y2="28.6273" gradientUnits="userSpaceOnUse">
<stop stop-color="#F3643C"/>
<stop offset="1" stop-color="#FFBD4F"/>
</linearGradient>
</defs>
</svg>
